PathFileType	4	(X/Y/Z)	5_2_14_p0_0-343.trc
DataRate	CameraRate	NumFrames	NumMarkers	Units	OrigDataRate	OrigDataStartFrame	OrigNumFrames
60.0	60.0	5	27	m	60.0	301	344
Frame#	Time	RHip			RKnee			RAnkle			RBigToe			RSmallToe			RHeel			LHip			LKnee			LAnkle			LBigToe			LSmallToe			LHeel			Neck			Head			Nose			RShoulder			RElbow			RWrist			RThumb			RIndex			RPinky			LShoulder			LElbow			LWrist			LThumb			LIndex			LPinky			
		X1	Y1	Z1	X2	Y2	Z2	X3	Y3	Z3	X4	Y4	Z4	X5	Y5	Z5	X6	Y6	Z6	X7	Y7	Z7	X8	Y8	Z8	X9	Y9	Z9	X10	Y10	Z10	X11	Y11	Z11	X12	Y12	Z12	X13	Y13	Z13	X14	Y14	Z14	X15	Y15	Z15	X16	Y16	Z16	X17	Y17	Z17	X18	Y18	Z18	X19	Y19	Z19	X20	Y20	Z20	X21	Y21	Z21	X22	Y22	Z22	X23	Y23	Z23	X24	Y24	Z24	X25	Y25	Z25	X26	Y26	Z26	X27	Y27	Z27	
301	5.016666666666667	0.43486221535647135	0.4699430505303073	0.8027676566323145	0.4512532348160765	0.5400988237928899	1.2161399969630218	0.47053424335551114	0.7094065443136492	1.6580722680492248	0.4581866296388095	0.5184485142916453	1.6548825223804426	0.49538138441592594	0.5776425116526966	1.675483228478085	0.4806123860954108	0.7987483867144926	1.7358785978743192	0.23312615941704884	0.4815118132776396	0.8155701167734747	0.25689263884431374	0.5737184850925535	1.2476410269771558	0.2761404809273611	0.7327357028313843	1.6876706748548647	0.221924985750478	0.518045315847231	1.677063268752148	0.17539010499054042	0.6155583284114458	1.678810432503173	0.31165043211527227	0.75656381266417	1.7191762183299473	0.29367752024237526	0.39648400984431703	0.3095732944739913	0.3239161471149514	0.2960990445771152	0.06334290257791353	0.31531423926147495	0.24666133959615955	0.21466613314752897	0.46807822462238835	0.40958568927206673	0.37831513385847937	0.5276555602759945	0.5022654680998269	0.625670328201213	0.5585786452070134	0.5406464980154084	0.8675233291066209	0.5278195540760299	0.5155871124988444	0.9773175678113263	0.5439779404313402	0.5066345709447836	0.9844048612811516	0.5739815196713234	0.5556220444136105	0.9910473388457383	0.17000311671801888	0.36935421616187614	0.3779955000424079	0.14489529667962545	0.5535431372682041	0.6047345111972048	0.23749397673229888	0.4950030807362302	0.7202430828504017	0.24126518944993897	0.4092796013802731	0.7200326034492097	0.2414599517199419	0.40295397217448536	0.7290288795450607	0.22026007194467329	0.44891353255404304	0.7261971332642648
302	5.033333333333333	0.430050178714311	0.48333028462807115	0.80524320317876	0.4512140515464357	0.5401887938368635	1.2162353388156657	0.47059226821727823	0.7095045527022017	1.6581939338106744	0.459423340189988	0.5212766425641233	1.6591936487060834	0.5041352739402811	0.5972901021916195	1.6865117966471186	0.48202671210857356	0.8020818458380455	1.7409083604716846	0.23307512521062776	0.4815067832792026	0.8156793779488605	0.2567952234981516	0.573941932133422	1.2478345564098239	0.27613768901923397	0.7327032768578109	1.6876650680414227	0.22200216906759948	0.5176089625249546	1.676912833155293	0.17464376009844151	0.6125911729532376	1.6735941750285173	0.30582160315015217	0.7732296948118417	1.7270126669110044	0.2937061720469904	0.3964922276488374	0.30956511877105264	0.323885564312317	0.2962340153816037	0.06334523126020555	0.3152577360217038	0.24677369666324606	0.2146434365529483	0.4680770428878047	0.41035183257392566	0.3817296924290525	0.523343013688545	0.500287132453275	0.625991969977895	0.5585480044489228	0.5406918891721401	0.8676213761772701	0.5283445932831626	0.5141230256732349	0.9772239332486471	0.5514031063133585	0.5230176644582031	0.9873514588391473	0.573586997401299	0.557828656784986	0.9924639684461289	0.17002757539553928	0.3694988390766402	0.3781826709234497	0.1449874136750694	0.5539337990603581	0.6065253201725777	0.23706033033874233	0.4960117128098888	0.7171261230102037	0.23799764975705845	0.39360775136511333	0.7128703446995226	0.2387298990339326	0.385477795233952	0.7202926528821384	0.21822910469934187	0.4385674057979431	0.7193866605189028
303	5.05	0.4300279012040729	0.4831934396730237	0.8052908008719232	0.45127624950920486	0.5399540040194252	1.216239696254949	0.47056022442646295	0.7094576280963915	1.6580552104305801	0.4583240527554752	0.5188174507449547	1.6552269901005106	0.49853031608077264	0.5894888642649242	1.6806494909896956	0.48084243670825483	0.7990002347189911	1.736162598874951	0.23305093474483432	0.48153037028427503	0.8158487796160659	0.25674568446431084	0.5741759151289147	1.2480291760197297	0.27613030329421145	0.7328608507899189	1.6877660886799084	0.22300424945896705	0.5162305739152355	1.672450082506506	0.17675427452789988	0.629904070734525	1.6843754964699504	0.30571988004710426	0.7735402294623358	1.727112915147274	0.29371033973286415	0.3964291098109376	0.30963582326252953	0.3238922338746317	0.2963765259541245	0.06338210574198921	0.3152503536599798	0.2468688630852527	0.21468560998964015	0.46806938780243995	0.41035607336581037	0.3817613796116494	0.5246799427251657	0.4913325491164717	0.628836490688591	0.5585313978685836	0.5407386292363665	0.8675415779090532	0.5233273563052052	0.5130454514608267	0.9776039645588774	0.5467441235591866	0.5179907630623896	0.9870775671408076	0.5735641487555593	0.5569872809319314	0.9919402368671346	0.17009415935388522	0.36934197199092594	0.37825359846060796	0.14444647856790008	0.551262029753027	0.6066589617009802	0.22968704260247957	0.4846815724177598	0.7089067517642932	0.23473011006417793	0.37793590134995364	0.7057080859498356	0.23599984634792331	0.3680016182934186	0.711556426219216	0.21619813745401045	0.42822127904184315	0.7125761877735408
304	5.066666666666666	0.4299945121307621	0.4831590527941044	0.8052594185626728	0.4511620250886803	0.5401685480643649	1.21624197785108	0.4697735717971026	0.7111005258823253	1.663248439469758	0.4501717429312731	0.5321914260028648	1.6650584495894585	0.49992884871073884	0.5927079210854835	1.6853210341418927	0.48554860280488044	0.8158286305498945	1.7462722207783172	0.23303657705490033	0.4816550978781791	0.8159139166815843	0.2567278637074859	0.5740590802150933	1.2482474814214675	0.27615698143162365	0.7323461545120108	1.687500437044403	0.22356645890767704	0.5321006489448223	1.6827083400981337	0.17670392481006933	0.6300459077151332	1.6845165321292446	0.31077401818814926	0.7581638161514359	1.7243442364591297	0.2937037016086647	0.39644675333182927	0.30962811463441914	0.3281574758116746	0.2993331609877028	0.0627349675815038	0.3153230647599282	0.24684011216811888	0.21472458848133003	0.468026650189084	0.4098500575328838	0.3784020137305873	0.5248061606742236	0.49022405221450965	0.6249496949799869	0.5585479467584693	0.5404575641197953	0.867718260494639	0.5284749142001757	0.5131138596838951	0.9771947315296982	0.5512808633713794	0.5201121313193605	0.9878277068046818	0.5734365809343271	0.5584699573031906	0.9930283191922342	0.17040277565955378	0.3711551813525994	0.3818895136386071	0.1334615220453933	0.5544162162376398	0.6087829074563748	0.22231375486621685	0.47335143202563074	0.7006873805183826	0.23146257037129742	0.36226405133479395	0.6985458272001485	0.23326979366191403	0.3505254413528852	0.7028201995562937	0.21416717020867904	0.41787515228574323	0.7057657150281788
305	5.083333333333333	0.4300197873469255	0.4831982562187072	0.8052939032043067	0.4512424215510627	0.5400442118218882	1.2162814329108593	0.47405646855999717	0.7130375827220168	1.6632723397741103	0.46193293973965494	0.5316086706351345	1.6630527283661702	0.5041042183235876	0.597047425429045	1.6862715068093312	0.48086568116674144	0.7996888269174918	1.7362779101483374	0.23260362671279733	0.48261363359226955	0.8199861929332743	0.25675987759822194	0.5740733789522089	1.2482792799230735	0.2773007611406814	0.7361403472041471	1.6936036199149727	0.2238130607929832	0.5314475896636143	1.6823881604407396	0.1767895918632953	0.6298630868695774	1.6844773918948959	0.3047660815777042	0.7749950275365802	1.7323329294544472	0.29369491694397487	0.39655722258002185	0.3096184958788982	0.32384544250065844	0.296254279130215	0.06319569378807896	0.31522165933720253	0.24685236810030695	0.21470580779452958	0.4680059341162192	0.4098321287804423	0.37833377800458845	0.5290117940076156	0.4774452196947915	0.6271730456924085	0.5585682983340255	0.5404838733376384	0.8676288329370644	0.528491654328506	0.5130268133801436	0.9771180177593163	0.5520780549216576	0.5219200185431631	0.991269005739526	0.5733870051874468	0.5583507831311552	0.9930412124636728	0.17036435516788612	0.37116011982309477	0.3819526854111667	0.12772228619836476	0.541703402452177	0.6036397507764093	0.21494046712995413	0.4620212916335017	0.692468009272472	0.2281950306784169	0.3465922013196342	0.6913835684504614	0.2305397409759047	0.3330492644123518	0.6940839728933714	0.21213620296334762	0.4075290255296433	0.6989552422828167
